<svg width="150" height="19" viewBox="0 0 150 19" fill="none" xmlns="http://www.w3.org/2000/svg">
<path d="M9.82764 8.49399C8.84487 7.57974 7.717 7.27499 6.39126 7.27499C4.76212 7.27499 3.8585 7.77426 3.8585 8.63015C3.8585 9.51847 4.67637 10.0113 6.45062 10.1215C9.06913 10.2901 12.3868 10.8671 12.3868 14.4917C12.3868 16.8973 10.3883 18.9722 6.41764 18.9722C4.22127 18.9722 2.02489 18.6156 0 16.5407L1.6951 14.1351C2.67787 15.2115 4.93361 16.0155 6.47701 16.0414C7.76977 16.0674 8.98339 15.406 8.98339 14.4074C8.98339 13.4673 8.19849 13.0782 6.22637 12.968C3.60786 12.7735 0.488084 11.8333 0.488084 8.7339C0.488084 5.58265 3.80574 4.47388 6.34509 4.47388C8.51509 4.47388 10.1442 4.88886 11.747 6.26996L9.82764 8.49399Z" fill="black"/>
<path d="M27.9395 11.7038C27.9395 15.6332 25.2088 18.8168 20.7039 18.8168C16.1991 18.8168 13.5014 15.6332 13.5014 11.7038C13.5014 7.80042 16.2584 4.59082 20.6776 4.59082C25.0967 4.59082 27.9395 7.80042 27.9395 11.7038ZM16.9378 11.7038C16.9378 13.7787 18.2042 15.7174 20.7105 15.7174C23.2169 15.7174 24.4833 13.7787 24.4833 11.7038C24.4833 9.65486 23.019 7.66426 20.7105 7.66426C18.2305 7.66426 16.9378 9.65486 16.9378 11.7038Z" fill="black"/>
<path d="M32.8664 4.9148V12.0084C32.8664 14.0832 34.0207 15.6589 36.2171 15.6589C38.3277 15.6589 39.7656 13.9147 39.7656 11.8398V4.85645L43.169 4.86941V18.5378H40.1019L39.8777 16.6834C38.4398 18.0645 37.1207 18.7323 35.1749 18.7323C31.8573 18.7323 29.4366 16.2684 29.4366 12.0343V4.90183L32.8664 4.9148Z" fill="black"/>
<path d="M50.7985 0.924561L50.853 4.89538H54.6785V7.80024H50.82V13.6942C50.82 14.9975 51.5522 15.633 52.6207 15.633C52.6207 15.633 53.4979 15.6395 54.3619 15.3217L54.9951 18.0191C54.9951 18.0191 53.4385 18.6416 52.3964 18.674C49.3822 18.7842 47.4166 17.0984 47.4166 13.6942V7.80024H44.8245V4.89538H47.4166V1.22541L50.7985 0.924561Z" fill="black"/>
<path d="M60.4695 0V6.72396C61.7095 5.14833 63.2265 4.675 64.8029 4.675C68.7406 4.675 70.4884 7.30104 70.4884 11.3147V18.5055H67.0521V11.3406C67.0521 8.85073 65.7263 7.80031 63.8993 7.80031C61.8744 7.80031 60.4629 9.48616 60.4629 11.5351V18.5055H57.0266V0.356623L60.4695 0Z" fill="black"/>
<path d="M82.0706 18.5964V11.2888C82.0706 9.49275 81.1142 7.85877 79.2278 7.85877C77.3678 7.85877 76.2729 9.49275 76.2729 11.2888V18.5899H72.8365V4.89556L76.0157 4.92798L76.2663 6.58789C76.9985 5.20679 78.6012 4.70752 79.927 4.70752C81.5891 4.70752 83.2446 5.36889 84.0361 7.25575C85.2761 5.31702 86.8789 4.76588 88.6795 4.76588C92.6172 4.76588 94.5629 7.14552 94.5629 11.237V18.5964H91.1265V11.237C91.1265 9.44088 90.368 7.91712 88.508 7.91712C86.648 7.91712 85.3025 9.49275 85.3025 11.2953L85.4938 18.5964H82.0706Z" fill="black"/>
<path d="M99.5822 12.8837C99.8065 14.5696 101.297 15.7886 103.718 15.7886C104.984 15.7886 106.646 15.3153 107.431 14.5177L109.628 16.651C108.163 18.1423 105.769 18.862 103.658 18.862C98.8765 18.862 96.0338 15.9572 96.0338 11.5869C96.0338 7.43714 98.9029 4.448 103.408 4.448C108.051 4.448 110.953 7.26856 110.412 12.8837H99.5822ZM107.121 10.0891C106.897 8.31898 105.492 7.43066 103.52 7.43066C101.66 7.43066 100.143 8.31898 99.635 10.0891H107.121Z" fill="black"/>
<path d="M127.04 0V18.512H123.835L123.611 16.6316C122.542 18.2656 120.827 18.8167 119.139 18.8167C115.056 18.8167 111.989 16.1583 111.989 11.6778C111.989 6.97684 115.003 4.53883 119.053 4.53883C120.517 4.53883 122.793 5.31692 123.611 6.72396V0.363107L127.04 0ZM115.412 11.6778C115.412 14.0574 117.16 15.6914 119.35 15.6914C121.52 15.6914 123.373 14.1417 123.373 11.6778C123.373 9.29813 121.513 7.69657 119.35 7.69657C117.16 7.69008 115.412 9.21383 115.412 11.6778Z" fill="black"/>
<path d="M133.319 1.97124C133.319 4.59728 129.27 4.59728 129.27 1.97124C129.263 -0.654801 133.319 -0.654801 133.319 1.97124ZM129.573 4.7918V18.4991H133.009V4.80477L129.573 4.7918Z" fill="black"/>
<path d="M146.689 4.85001L150 4.86946V18.5119H146.762L146.59 16.5213C145.799 18.1229 143.635 18.9009 142.085 18.9269C137.976 18.9528 134.935 16.4629 134.935 11.6777C134.935 6.97678 138.115 4.51284 142.171 4.53878C144.031 4.53878 145.799 5.39467 146.59 6.74984L146.689 4.85001ZM138.378 11.6777C138.378 14.2778 140.205 15.8275 142.487 15.8275C147.889 15.8275 147.889 7.55386 142.487 7.55386C140.205 7.55386 138.378 9.07761 138.378 11.6777Z" fill="black"/>
</svg>
